[Header]
FileType HTR
DataType HTRS
FileVersion 1
NumSegments 64
NumFrames 3
DataFrameRate 24
EulerRotationOrder ZYX
CalibrationUnits mm
RotationUnits Degrees
GlobalAxisofGravity Y
BoneLengthAxis Y
ScaleFactor 1.0
[SegmentNames&Hierarchy]
Hips	GLOBAL
Spine	Hips
Spine1	Spine
Spine2	Spine1
Neck	Spine2
Head	Neck
LeftEye	Head
RightEye	Head
LeftShoulder	Spine2
LeftArm	LeftShoulder
LeftForeArm	LeftArm
LeftHand	LeftForeArm
LeftHandThumb1	LeftHand
LeftHandThumb2	LeftHandThumb1
LeftHandThumb3	LeftHandThumb2
LeftHandThumb4	LeftHandThumb3
LeftHandIndex1	LeftHand
LeftHandIndex2	LeftHandIndex1
LeftHandIndex3	LeftHandIndex2
LeftHandIndex4	LeftHandIndex3
LeftHandMiddle1	LeftHand
LeftHandMiddle2	LeftHandMiddle1
LeftHandMiddle3	LeftHandMiddle2
LeftHandMiddle4	LeftHandMiddle3
LeftHandRing1	LeftHand
LeftHandRing2	LeftHandRing1
LeftHandRing3	LeftHandRing2
LeftHandRing4	LeftHandRing3
LeftHandPinky1	LeftHand
LeftHandPinky2	LeftHandPinky1
LeftHandPinky3	LeftHandPinky2
LeftHandPinky4	LeftHandPinky3
RightShoulder	Spine2
RightArm	RightShoulder
RightForeArm	RightArm
RightHand	RightForeArm
RightHandPinky1	RightHand
RightHandPinky2	RightHandPinky1
RightHandPinky3	RightHandPinky2
RightHandPinky4	RightHandPinky3
RightHandRing1	RightHand
RightHandRing2	RightHandRing1
RightHandRing3	RightHandRing2
RightHandRing4	RightHandRing3
RightHandMiddle1	RightHand
RightHandMiddle2	RightHandMiddle1
RightHandMiddle3	RightHandMiddle2
RightHandMiddle4	RightHandMiddle3
RightHandIndex1	RightHand
RightHandIndex2	RightHandIndex1
RightHandIndex3	RightHandIndex2
RightHandIndex4	RightHandIndex3
RightHandThumb1	RightHand
RightHandThumb2	RightHandThumb1
RightHandThumb3	RightHandThumb2
RightHandThumb4	RightHandThumb3
LeftUpLeg	Hips
LeftLeg	LeftUpLeg
LeftFoot	LeftLeg
LeftToeBase	LeftFoot
RightUpLeg	Hips
RightLeg	RightUpLeg
RightFoot	RightLeg
RightToeBase	RightFoot
[BasePosition]
Hips	0	0	0	0	0	0	1
Spine	0	0	0	0	0	0	1
Spine1	0	0	0	0	0	0	1
Spine2	0	0	0	0	0	0	1
Neck	0	0	0	0	0	0	1
Head	0	0	0	0	0	0	1
LeftEye	0	0	0	0	0	0	1
RightEye	0	0	0	0	0	0	1
LeftShoulder	0	0	0	0	0	0	1
LeftArm	0	0	0	0	0	0	1
LeftForeArm	0	0	0	0	0	0	1
LeftHand	0	0	0	0	0	0	1
LeftHandThumb1	0	0	0	0	0	0	1
LeftHandThumb2	0	0	0	0	0	0	1
LeftHandThumb3	0	0	0	0	0	0	1
LeftHandThumb4	0	0	0	0	0	0	1
LeftHandIndex1	0	0	0	0	0	0	1
LeftHandIndex2	0	0	0	0	0	0	1
LeftHandIndex3	0	0	0	0	0	0	1
LeftHandIndex4	0	0	0	0	0	0	1
LeftHandMiddle1	0	0	0	0	0	0	1
LeftHandMiddle2	0	0	0	0	0	0	1
LeftHandMiddle3	0	0	0	0	0	0	1
LeftHandMiddle4	0	0	0	0	0	0	1
LeftHandRing1	0	0	0	0	0	0	1
LeftHandRing2	0	0	0	0	0	0	1
LeftHandRing3	0	0	0	0	0	0	1
LeftHandRing4	0	0	0	0	0	0	1
LeftHandPinky1	0	0	0	0	0	0	1
LeftHandPinky2	0	0	0	0	0	0	1
LeftHandPinky3	0	0	0	0	0	0	1
LeftHandPinky4	0	0	0	0	0	0	1
RightShoulder	0	0	0	0	0	0	1
RightArm	0	0	0	0	0	0	1
RightForeArm	0	0	0	0	0	0	1
RightHand	0	0	0	0	0	0	1
RightHandPinky1	0	0	0	0	0	0	1
RightHandPinky2	0	0	0	0	0	0	1
RightHandPinky3	0	0	0	0	0	0	1
RightHandPinky4	0	0	0	0	0	0	1
RightHandRing1	0	0	0	0	0	0	1
RightHandRing2	0	0	0	0	0	0	1
RightHandRing3	0	0	0	0	0	0	1
RightHandRing4	0	0	0	0	0	0	1
RightHandMiddle1	0	0	0	0	0	0	1
RightHandMiddle2	0	0	0	0	0	0	1
RightHandMiddle3	0	0	0	0	0	0	1
RightHandMiddle4	0	0	0	0	0	0	1
RightHandIndex1	0	0	0	0	0	0	1
RightHandIndex2	0	0	0	0	0	0	1
RightHandIndex3	0	0	0	0	0	0	1
RightHandIndex4	0	0	0	0	0	0	1
RightHandThumb1	0	0	0	0	0	0	1
RightHandThumb2	0	0	0	0	0	0	1
RightHandThumb3	0	0	0	0	0	0	1
RightHandThumb4	0	0	0	0	0	0	1
LeftUpLeg	0	0	0	0	0	0	1
LeftLeg	0	0	0	0	0	0	1
LeftFoot	0	0	0	0	0	0	1
LeftToeBase	0	0	0	0	0	0	1
RightUpLeg	0	0	0	0	0	0	1
RightLeg	0	0	0	0	0	0	1
RightFoot	0	0	0	0	0	0	1
RightToeBase	0	0	0	0	0	0	1
[Hips]
33	74.19074249	925.4810181	-9.106290817	7.806153297	-6.01816988	0.1495587677	1.0
34	60.1177063	961.4418945	-3.390987396	6.20170784	-5.084264278	-0.2392744869	1.0
35	46.89735794	993.5283203	2.277978659	4.657829762	-4.059847355	-0.6311184168	1.0
[Spine]
33	0	101.8159943	1.315000057	4.923611641	-1.133291364	-0.675780952	1.0
34	0	101.8159943	1.315000057	4.031589031	-1.136520028	-0.6629232764	1.0
35	0	101.8159943	1.315000057	3.169906855	-1.045708179	-0.6129203439	1.0
[Spine1]
33	0	100.8349991	-10.00800037	1.69570148	-0.6080593467	3.051391363	1.0
34	0	100.8349991	-10.00800037	1.511514425	-0.4751386046	3.432139635	1.0
35	0	100.8349991	-10.00800037	1.345549822	-0.3199422956	3.825571299	1.0
[Spine2]
33	0	91	-13.73399925	1.674960017	-0.2060320228	3.004411936	1.0
34	0	91	-13.73399925	1.497855425	-0.05173268542	3.378590584	1.0
35	0	91	-13.73399925	1.339231491	0.1244257092	3.765820503	1.0
[Neck]
33	0	166.7169952	-25.16200066	-4.957950592	0.3795838356	-2.677648306	1.0
34	0	166.7169952	-25.16200066	-3.837724924	0.1835869104	-2.849402666	1.0
35	0	166.7169952	-25.16200066	-2.72974968	-0.002342363819	-2.971609354	1.0
[Head]
33	0	96.17900085	16.84999847	-13.57897091	2.406321764	-12.84724808	1.0
34	0	96.17900085	16.84999847	-10.34520054	1.680594325	-11.78243256	1.0
35	0	96.17900085	16.84999847	-7.366514206	0.9848448634	-10.74376774	1.0
[LeftEye]
33	30.6760006	64.09500122	92.83599854	0	0	0	1.0
34	30.6760006	64.09500122	92.83599854	0	0	0	1.0
35	30.6760006	64.09500122	92.83599854	0	0	0	1.0
[RightEye]
33	-30.6760006	64.09500122	92.83499908	0	0	0	1.0
34	-30.6760006	64.09500122	92.83499908	0	0	0	1.0
35	-30.6760006	64.09500122	92.83499908	0	0	0	1.0
[LeftShoulder]
33	45.70400238	109.4599991	-26.28000069	4.236253738	-13.67305183	-7.757898331	1.0
34	45.70400238	109.4599991	-26.28000069	4.288034439	-14.94760799	-6.617742538	1.0
35	45.70400238	109.4599991	-26.28000069	4.327651024	-15.92412758	-5.515988827	1.0
[LeftArm]
33	105.923996	-5.24600029	-22.32099915	-14.24618912	-4.39919281	-74.0147171	1.0
34	105.923996	-5.24600029	-22.32099915	-9.175415993	-2.566952944	-73.82154083	1.0
35	105.923996	-5.24600029	-22.32099915	-4.940398216	-0.6851007938	-74.02655792	1.0
[LeftForeArm]
33	278.414978	-0.0009999999311	0	1.179911067e-07	-9.964468956	-0.0002057608799	1.0
34	278.414978	-0.0009999999311	0	8.247278629e-07	-13.44847202	-0.0002028568124	1.0
35	278.414978	-0.0009999999311	0	2.730847939e-07	-16.74160194	-0.0001981915848	1.0
[LeftHand]
33	283.2879944	0	0	-21.98424911	-15.58772087	7.921587467	1.0
34	283.2879944	0	0	-24.36274719	-11.42473984	1.353538871	1.0
35	283.2879944	0	0	-26.42059517	-7.614953995	-4.962359428	1.0
[LeftHandThumb1]
33	24.6609993	-15.75	26.8239994	18.08044243	-3.897659302	10.22974491	1.0
34	24.6609993	-15.75	26.8239994	18.08150864	-3.893940687	10.22922802	1.0
35	24.6609993	-15.75	26.8239994	18.08242989	-3.890822887	10.22881508	1.0
[LeftHandThumb2]
33	32.29800034	-18.64699936	18.64699936	-0.4730099738	32.7419548	-2.863453865	1.0
34	32.29800034	-18.64699936	18.64699936	-0.4705652297	32.74806595	-2.862014771	1.0
35	32.29800034	-18.64699936	18.64699936	-0.4684952796	32.75322723	-2.860792875	1.0
[LeftHandThumb3]
33	26.52600098	-15.31499958	15.31499958	2.084031582	9.303657532	-0.02246060595	1.0
34	26.52600098	-15.31499958	15.31499958	2.084698677	9.306096077	-0.02184753679	1.0
35	26.52600098	-15.31499958	15.31499958	2.085263252	9.308154106	-0.02132733352	1.0
[LeftHandThumb4]
33	19.54599953	-11.28499985	11.28499985	0	0	0	1.0
34	19.54599953	-11.28499985	11.28499985	0	0	0	1.0
35	19.54599953	-11.28499985	11.28499985	0	0	0	1.0
[LeftHandIndex1]
33	91.09299469	-5.170999527	22.60099792	-3.240464211	6.709366798	-36.8271637	1.0
34	91.09299469	-5.170999527	22.60099792	-3.27859807	6.730494499	-37.15985107	1.0
35	91.09299469	-5.170999527	22.60099792	-3.205154181	6.700417519	-36.51203156	1.0
[LeftHandIndex2]
33	36.76399994	0	0	-2.601198912	4.89887476	-49.46918488	1.0
34	36.76399994	0	0	-2.628226995	4.918856144	-49.80091476	1.0
35	36.76399994	0	0	-2.575740099	4.879861355	-49.15568542	1.0
[LeftHandIndex3]
33	28.83100128	0	0	-1.299407005	3.410465479	-38.98204422	1.0
34	28.83100128	0	0	-1.318518162	3.437546015	-39.31264496	1.0
35	28.83100128	0	0	-1.281471252	3.384781122	-38.66960526	1.0
[LeftHandIndex4]
33	23.92700005	0	0	0	0	0	1.0
34	23.92700005	0	0	0	0	0	1.0
35	23.92700005	0	0	0	0	0	1.0
[LeftHandMiddle1]
33	95.33399963	0	0	-5.424294949	9.721011162	-45.12859344	1.0
34	95.33399963	0	0	-5.471308231	9.723176956	-45.46453857	1.0
35	95.33399963	0	0	-5.379979134	9.719828606	-44.81159592	1.0
[LeftHandMiddle2]
33	36.98199844	0	0	-3.863488436	5.39402914	-62.41896439	1.0
34	36.98199844	0	0	-3.894604206	5.406660557	-62.75179672	1.0
35	36.98199844	0	0	-3.834137201	5.381944656	-62.10443497	1.0
[LeftHandMiddle3]
33	29.50900078	0	0	-1.469974399	3.9941082	-41.09643173	1.0
34	29.50900078	0	0	-1.490381479	4.01981163	-41.42733002	1.0
35	29.50900078	0	0	-1.450805902	3.969721794	-40.78371429	1.0
[LeftHandMiddle4]
33	28.3390007	0	0	0	0	0	1.0
34	28.3390007	0	0	0	0	0	1.0
35	28.3390007	0	0	0	0	0	1.0
[LeftHandRing1]
33	91.04499817	-0.4390000105	-18.65100098	-7.095706463	11.69985867	-56.3543396	1.0
34	91.04499817	-0.4390000105	-18.65100098	-7.142418385	11.68555737	-56.69061661	1.0
35	91.04499817	-0.4390000105	-18.65100098	-7.050833702	11.70431614	-56.03504944	1.0
[LeftHandRing2]
33	31.54000092	0	0	-3.456378222	5.782770157	-69.29190063	1.0
34	31.54000092	0	0	-3.485821486	5.797548771	-69.62574768	1.0
35	31.54000092	0	0	-3.428616047	5.768667698	-68.97637177	1.0
[LeftHandRing3]
33	29.37700081	0	0	-1.427827835	4.404334068	-48.16938782	1.0
34	29.37700081	0	0	-1.448389292	4.429921627	-48.50034332	1.0
35	29.37700081	0	0	-1.408512354	4.380056858	-47.85666656	1.0
[LeftHandRing4]
33	26.47500038	0	0	0	0	0	1.0
34	26.47500038	0	0	0	0	0	1.0
35	26.47500038	0	0	0	0	0	1.0
[LeftHandPinky1]
33	80.77799988	-4.887000084	-38.06099701	-13.25723362	14.33516979	-66.83226776	1.0
34	80.77799988	-4.887000084	-38.06099701	-13.34230614	14.29069138	-67.17086029	1.0
35	80.77799988	-4.887000084	-38.06099701	-13.17171097	14.35806942	-66.50747681	1.0
[LeftHandPinky2]
33	36	0	0	-4.497435093	5.10129261	-74.62998962	1.0
34	36	0	0	-4.52924633	5.110424995	-74.96245575	1.0
35	36	0	0	-4.46743679	5.09251976	-74.31608582	1.0
[LeftHandPinky3]
33	21.14200211	0	0	-2.376753807	5.027308464	-49.42132187	1.0
34	21.14200211	0	0	-2.402335882	5.048331738	-49.75304031	1.0
35	21.14200211	0	0	-2.352668524	5.007322788	-49.10784531	1.0
[LeftHandPinky4]
33	19.75699997	0	0	0	0	0	1.0
34	19.75699997	0	0	0	0	0	1.0
35	19.75699997	0	0	0	0	0	1.0
[RightShoulder]
33	-45.70000076	109.4620056	-26.28000069	4.124393463	7.95913887	0.3877338469	1.0
34	-45.70000076	109.4620056	-26.28000069	4.322062016	7.217562675	-0.6645218134	1.0
35	-45.70000076	109.4620056	-26.28000069	4.549005985	6.503344059	-1.605698466	1.0
[RightArm]
33	-105.9280014	-5.248000145	-22.32099915	-0.2223957628	17.05526161	66.42436981	1.0
34	-105.9280014	-5.248000145	-22.32099915	0.9078310728	12.89728832	67.32215118	1.0
35	-105.9280014	-5.248000145	-22.32099915	1.993910313	8.851465225	68.37260437	1.0
[RightForeArm]
33	-278.414978	0	0	-4.071946023e-06	26.6456356	1.248225317e-06	1.0
34	-278.414978	0	0	-3.255195679e-06	28.761549	-2.617238124e-06	1.0
35	-278.414978	0	0	-2.467967761e-06	29.88696861	-4.503666787e-06	1.0
[RightHand]
33	-283.2879944	0	0.0009999999311	-8.981658936	7.641921043	11.88982105	1.0
34	-283.2879944	0	0.0009999999311	-11.64913464	6.578687668	11.69300652	1.0
35	-283.2879944	0	0.0009999999311	-13.59462357	4.789187431	12.09285069	1.0
[RightHandPinky1]
33	-80.76699829	-4.885000229	-38.06000137	-5.233654022	-16.08129692	36.97933578	1.0
34	-80.76699829	-4.885000229	-38.06000137	-5.231042385	-16.09522629	36.96035385	1.0
35	-80.76699829	-4.885000229	-38.06000137	-5.228573322	-16.10778809	36.94274902	1.0
[RightHandPinky2]
33	-36	0	0.0009999999311	-1.950294495	-3.821131945	45.7440567	1.0
34	-36	0	0.0009999999311	-1.94869256	-3.819732904	45.7227211	1.0
35	-36	0	0.0009999999311	-1.947223544	-3.818448544	45.70314789	1.0
[RightHandPinky3]
33	-21.14200211	0	0	-0.7690339088	0.04771599919	22.20302773	1.0
34	-21.14200211	0	0	-0.7680847049	0.04957900196	22.18218231	1.0
35	-21.14200211	0	0	-0.7672148943	0.05128821358	22.16306305	1.0
[RightHandPinky4]
33	-19.75699997	0	0	0	0	0	1.0
34	-19.75699997	0	0	0	0	0	1.0
35	-19.75699997	0	0	0	0	0	1.0
[RightHandRing1]
33	-91.03599548	-0.4390000105	-18.65100098	-3.032949686	-11.53318787	27.03922081	1.0
34	-91.03599548	-0.4390000105	-18.65100098	-3.030471563	-11.53812408	27.01838875	1.0
35	-91.03599548	-0.4390000105	-18.65100098	-3.028187037	-11.54254532	26.99923134	1.0
[RightHandRing2]
33	-31.54000092	0	0	-1.202162147	-4.061218262	40.28150177	1.0
34	-31.54000092	0	0	-1.200879216	-4.059577942	40.26044464	1.0
35	-31.54000092	0	0	-1.199703455	-4.058072567	40.24113083	1.0
[RightHandRing3]
33	-29.37700081	0	0	-0.139970094	0.08237149566	17.89420319	1.0
34	-29.37700081	0	0	-0.1395323873	0.08439967036	17.87336159	1.0
35	-29.37700081	0	0	-0.1391317099	0.08626058698	17.85424232	1.0
[RightHandRing4]
33	-26.47500038	0	0	0	0	0	1.0
34	-26.47500038	0	0	0	0	0	1.0
35	-26.47500038	0	0	0	0	0	1.0
[RightHandMiddle1]
33	-95.32500458	0	0	-1.531429768	-8.700158119	15.9606514	1.0
34	-95.32500458	0	0	-1.528867364	-8.694466591	15.93959522	1.0
35	-95.32500458	0	0	-1.526517153	-8.68919754	15.92030144	1.0
[RightHandMiddle2]
33	-36.98199844	0	0	-1.432211757	-3.828864574	33.4973526	1.0
34	-36.98199844	0	0	-1.430774808	-3.82730937	33.47637177	1.0
35	-36.98199844	0	0	-1.429457188	-3.825881004	33.45713425	1.0
[RightHandMiddle3]
33	-29.50900078	0	0	-0.2557670772	-1.685770869	15.97847748	1.0
34	-29.50900078	0	0	-0.2551564276	-1.683785796	15.95761871	1.0
35	-29.50900078	0	0	-0.2545978725	-1.681964993	15.93848324	1.0
[RightHandMiddle4]
33	-28.3390007	0	0.0009999999311	0	0	0	1.0
34	-28.3390007	0	0.0009999999311	0	0	0	1.0
35	-28.3390007	0	0.0009999999311	0	0	0	1.0
[RightHandIndex1]
33	-91.08300018	-5.167999744	22.60099792	-0.308405906	-4.725194454	7.91902113	1.0
34	-91.08300018	-5.167999744	22.60099792	-0.3065279722	-4.710492611	7.899651527	1.0
35	-91.08300018	-5.167999744	22.60099792	-0.3048046231	-4.697044849	7.88185215	1.0
[RightHandIndex2]
33	-36.76399994	0	0	-0.6320169568	-2.77726531	20.65238762	1.0
34	-36.76399994	0	0	-0.631008327	-2.775395393	20.63150024	1.0
35	-36.76399994	0	0	-0.630084455	-2.773679256	20.61234283	1.0
[RightHandIndex3]
33	-28.83100128	0	0	-0.240414992	-0.1651862413	13.92377567	1.0
34	-28.83100128	0	0	-0.2399125397	-0.1631537974	13.90293312	1.0
35	-28.83100128	0	0	-0.2394524515	-0.1612888724	13.88381195	1.0
[RightHandIndex4]
33	-23.92700005	0	0	0	0	0	1.0
34	-23.92700005	0	0	0	0	0	1.0
35	-23.92700005	0	0	0	0	0	1.0
[RightHandThumb1]
33	-24.64799881	-15.72700024	26.82600021	18.11174583	3.836163521	-10.23138428	1.0
34	-24.64799881	-15.72700024	26.82600021	18.10754967	3.849820614	-10.23296833	1.0
35	-24.64799881	-15.72700024	26.82600021	18.10343552	3.86203742	-10.23413467	1.0
[RightHandThumb2]
33	-32.29800034	-18.64699936	18.64699936	-0.4251428545	-32.86266708	2.836488485	1.0
34	-32.29800034	-18.64699936	18.64699936	-0.4342805445	-32.83971024	2.841888428	1.0
35	-32.29800034	-18.64699936	18.64699936	-0.4426578879	-32.81865311	2.846836805	1.0
[RightHandThumb3]
33	-26.52600098	-15.31399918	15.31399918	1.87526691	-8.498682022	0.8215352893	1.0
34	-26.52600098	-15.31399918	15.31399918	1.872899532	-8.48950386	0.82375741	1.0
35	-26.52600098	-15.31399918	15.31399918	1.870726943	-8.481081963	0.8257985711	1.0
[RightHandThumb4]
33	-19.54599953	-11.28499985	11.28499985	0	0	0	1.0
34	-19.54599953	-11.28499985	11.28499985	0	0	0	1.0
35	-19.54599953	-11.28499985	11.28499985	0	0	0	1.0
[LeftUpLeg]
33	82.07800293	-67.51699829	-15.99599934	-41.7903862	10.03434086	1.439074874	1.0
34	82.07800293	-67.51699829	-15.99599934	-34.68387222	11.18860149	3.192817211	1.0
35	82.07800293	-67.51699829	-15.99599934	-27.89206696	12.24045277	4.825363636	1.0
[LeftLeg]
33	0	-443.7049866	2.845999956	53.43410873	3.820334673	8.020872116	1.0
34	0	-443.7049866	2.845999956	43.95061111	5.988081455	7.327041626	1.0
35	0	-443.7049866	2.845999956	34.64589691	7.813780308	6.431377888	1.0
[LeftFoot]
33	0	-444.2789917	-29.8219986	-16.87534523	7.167992592	-8.049262047	1.0
34	0	-444.2789917	-29.8219986	-11.22377872	4.951284885	-7.541016102	1.0
35	0	-444.2789917	-29.8219986	-5.461352825	3.267542839	-7.099326134	1.0
[LeftToeBase]
33	0	-87.28699493	107.1060028	-3.614814281	-5.676456112e-06	5.110045095e-06	1.0
34	0	-87.28699493	107.1060028	-3.444513798	-6.53867346e-06	2.516474979e-06	1.0
35	0	-87.28699493	107.1060028	-3.768230438	-5.459675776e-06	3.366639874e-07	1.0
[RightUpLeg]
33	-82.07800293	-67.51699829	-15.99599934	-36.48047638	-1.090303898	0.7078849673	1.0
34	-82.07800293	-67.51699829	-15.99599934	-28.59785652	-1.989147305	2.25705266	1.0
35	-82.07800293	-67.51699829	-15.99599934	-20.36174202	-2.907454252	3.672334671	1.0
[RightLeg]
33	0	-443.7049866	2.861999989	56.42965317	-4.17461586	-2.052030563	1.0
34	0	-443.7049866	2.861999989	45.69223022	-4.449354649	-1.547384739	1.0
35	0	-443.7049866	2.861999989	33.96001053	-4.695418358	-0.8901814818	1.0
[RightFoot]
33	0	-444.2770081	-29.83799934	-22.26205444	3.569808722	-2.923877239	1.0
34	0	-444.2770081	-29.83799934	-19.6685009	3.605152845	-3.807822466	1.0
35	0	-444.2770081	-29.83799934	-16.38696671	3.717231512	-4.613326073	1.0
[RightToeBase]
33	0	-87.28699493	107.1060028	-6.627444267	-1.650313379e-06	-2.035080655e-07	1.0
34	0	-87.28699493	107.1060028	-4.679561138	-1.700410394e-06	-6.851538359e-08	1.0
35	0	-87.28699493	107.1060028	-2.908531189	-1.675691237e-06	9.785019017e-08	1.0
[EndOfFile]
